#!OML:ASF F:\VICON\USERDATA\INSTALL\rory3\rory3.ASF
:FULLY-SPECIFIED
:DEGREES
122
root -0.7645595794837486 18.04852812925459 29.005837159455744 2.760687300837315 2.237467822642326 -3.9671395272539702
lfemur -37.88000485639414 7.574211074631537 -22.67375241726166
ltibia 37.674396858243774
lfoot 8.838784883480276 -13.388972557169836
ltoes -7.250177145487973
rfemur -8.349156967242752 -3.208020667476658 26.73573353925076
rtibia 32.22032335133067
rfoot 26.56447357113395 -15.438257577037778
rtoes 3.3056396923236777
lowerback 1.0 -0.38279330759202734 1.43687316659011
upperback -1.2848259670494349 1.001556397011976 0.8080886771186081
thorax -7.22935214239152 -0.035998773574083764 0.5403093127511746
lowerneck -18.295330448885622 -5.951271149453268 -1.2921177614468622
upperneck 16.219406910343988 -6.022066791732649 2.38908088388557
head 8.058018420517376 -3.291294171296398 0.42594172188382473
lclavicle -2.8056550162460172e-14 1.7973101570049913e-14
lhumerus -60.99260899887567 1.954737273312042 85.10982207867487
lradius 92.15894192824089
lwrist 37.13175123274033
lhand -19.02312451005099 -12.788844891995112
lfingers nan
lthumb 7.494078242264277 18.837386329606908
rclavicle -2.308022659429908e-14 2.229714209269954e-14
rhumerus -35.102782581147565 21.16014927405738 -97.03403071788861
rradius 128.2742303497949
rwrist -16.811889633781487
rhand -17.128180041673584 1.0
rfingers nan
rthumb 9.14729178203848 11.971457001039322
123
root -0.7953736615125936 17.974062215406875 29.12538412998194 2.5035636773951104 2.5032807353179933 -3.5168074277844226
lfemur -37.39317841460919 7.859608925737474 -23.73229239899958
ltibia 37.79644004970815
lfoot 9.598776358921857 -13.997967274948966
ltoes -5.8486463335093255
rfemur -9.439505411390403 -3.780000977877019 26.22297451607546
rtibia 36.81503926790124
rfoot 26.9878838157641 -16.888436396528903
rtoes 18.536345848610253
lowerback 1.0 -0.5064779040667318 1.0438109679268315
upperback -1.0999015273572044 0.7761520067517541 0.6808174492189653
thorax -7.555590098753458 -0.10199313472923732 0.6144734562024805
lowerneck -19.02054702752873 -5.948468641233393 -1.3820015283106217
upperneck 16.388537026506214 -6.006423196611361 2.4399536089312734
head 8.199510988591696 -3.2616268869899865 0.44838375652107765
lclavicle 4.297099526225857e-15 2.84066648380311e-14
lhumerus -60.191845295400995 1.6912693742639133 85.42769651396998
lradius 92.1810770797581
lwrist 36.510854919865174
lhand -21.69170203495946 -10.741071750993214
lfingers nan
lthumb 4.919293501748072 20.19787269010176
rclavicle 9.397147714081485e-15 3.236163727852335e-14
rhumerus -35.97875046234486 20.375405497457145 -97.30733575247365
rradius 126.57332269168577
rwrist -15.450337020411233
rhand -17.403593661729282 1.0
rfingers nan
rthumb 8.855213192273144 11.821744828288065
124
root -0.8362699511644532 17.894707241268677 29.339448492484635 2.232056254713285 2.7152223678679683 -3.0027204549064903
lfemur -36.910477066340235 8.197843753677649 -24.767320383949958
ltibia 38.606812121243664
lfoot 9.807951241322328 -15.212105653274701
ltoes -3.021791106537135
rfemur -10.569471869910625 -4.285399146819579 25.644171269112398
rtibia 41.59062066531962
rfoot 27.91487444081724 -17.842493716243396
rtoes 15.304566152240252
lowerback 1.0 -0.6110453316236439 0.38342191659525926
upperback -0.9546551611825278 0.549557814904603 0.6154132664567864
thorax -7.8610339870638875 -0.1565840742929967 0.8593975645760856
lowerneck -19.097968771397518 -5.933238784971037 -1.498564935133255
upperneck 16.340695363494774 -5.920695627662164 2.5005180154247793
head 8.205491112366119 -3.2087917127394143 0.488121168229795
lclavicle 4.455933399043715e-14 8.034837128129737e-15
lhumerus -59.43770142322656 1.4410127939950383 85.81230013138678
lradius 92.2095840929707
lwrist 35.854716835011736
lhand -21.426084722223813 -10.986938846380848
lfingers nan
lthumb 5.282802777487972 20.35405260377567
rclavicle 4.953991346981295e-14 1.1865049064578234e-14
rhumerus -37.015361865689954 19.515707717669244 -97.5322194560481
rradius 124.84265089193582
rwrist -15.461537829275432
rhand -17.326050707045066 1.0
rfingers nan
rthumb 8.936704432746982 11.83021059671003
125
root -0.8807844002342174 17.803150532881375 29.495123515209528 1.953362083583047 2.903755649117504 -2.8626046482759997
lfemur -36.51669469958558 8.492617315216217 -25.2275154793712
ltibia 40.28952580569447
lfoot 8.907271077650023 -17.30208153034281
ltoes 1.870833371400014
rfemur -11.748747676344738 -4.784759197614514 25.36665073579939
rtibia 46.40726567374991
rfoot 28.99688667262072 -18.410168349040475
rtoes 14.854128098920658
lowerback 1.0 -0.7161862502343599 -0.11830886059935175
upperback -0.8830595775059356 0.3299643919770865 0.7347582553837302
thorax -8.220511265195382 -0.20981752060380177 1.1538610801259803
lowerneck -18.466148709287133 -5.867002793423184 -1.3779027395636576
upperneck 16.195179402522626 -5.7628822248476625 2.355489578749342
head 8.067919119075842 -3.1563914363513557 0.4591607720714048
lclavicle 6.236466921839363e-14 -1.0155740286927487e-15
lhumerus -58.66160259144192 1.0978965367261138 86.53471604358396
lradius 93.91441210235942
lwrist 36.753009650840994
lhand -27.43749647829607 -3.0974093614274345
lfingers nan
lthumb -0.47171002941865625 27.554625145065927
rclavicle 6.77971429772581e-14 3.198436935220833e-15
rhumerus -38.3692984857644 18.59303397505563 -97.90545253190098
rradius 123.1447355732867
rwrist -15.043792177624546
rhand -17.390711279963785 1.0
rfingers nan
rthumb 8.861117273701131 11.5949733965594
126
root -0.9217314801492882 17.714063131218904 29.579000699054617 1.7087771845782935 3.079203605651582 -2.7579623351025826
lfemur -36.214593152749785 8.716416707673762 -25.450055469925676
ltibia 42.98679938018642
lfoot 6.479135205586983 -19.85923806857084
ltoes 9.550231800767364
rfemur -12.873212352609315 -5.364343407834731 25.026003778486945
rtibia 51.20528749202676
rfoot 30.08449820538814 -18.40234825458606
rtoes 17.217962754740945
lowerback 1.0 -0.7936135188534708 -0.5667034414443447
upperback -0.6909505548965365 0.13959932163691224 0.9065822029996284
thorax -8.394190450075131 -0.25315381470815235 1.4627421858990743
lowerneck -18.29596168662359 -5.855999223070755 -1.2604460028036666
upperneck 16.061444143207105 -5.706311147363821 2.2347368111830805
head 7.9820164524402415 -3.142139107268557 0.42538430341507927
lclavicle 4.060643481900802e-14 -5.947416940984669e-15
lhumerus -57.66766163288054 0.6751022458675449 87.11648927716723
lradius 94.34566729188387
lwrist 36.32371774953183
lhand -26.864642257011774 -2.9432869298323077
lfingers nan
lthumb 0.04207717221266449 27.823479960385356
rclavicle 4.6216715703602253e-14 -1.3169547888147075e-15
rhumerus -39.47926458381609 17.51984660010558 -98.07488197452136
rradius 121.21939808632273
rwrist -13.917048497929592
rhand -17.423645127349193 1.0
rfingers nan
rthumb 8.813035001039907 11.451906605748405
127
root -0.9439939582415812 17.637001970282178 29.59955371019238 1.6022243434672592 3.2162793335152076 -2.6443952603255765
lfemur -36.045303600640366 8.501549782776877 -25.36974918869261
ltibia 46.450180853617496
lfoot 4.063803724863259 -20.35876111652347
ltoes 17.863012420121475
rfemur -14.002759550189687 -5.945334887487196 24.461630814694942
rtibia 55.83655010205841
rfoot 30.625759557013847 -18.440408657339717
rtoes 18.693714456042176
lowerback 1.0 -0.8503546316326185 -0.8362824414058997
upperback -0.5412713354689072 -0.030391259508038893 0.9866449787823723
thorax -8.489845048478633 -0.28840568723720117 1.6344009314924266
lowerneck -17.951109405680068 -5.913795709941845 -1.385465541576767
upperneck 15.75534319647125 -5.786894400356423 2.475404004048457
head 7.876103753093336 -3.1381366045102173 0.5048110117347551
lclavicle -9.828825530139762e-15 -1.2913180920535922e-14
lhumerus -56.42628402286835 0.14905644038336163 87.75819350636016
lradius 94.42829076183351
lwrist 35.68386874933266
lhand -27.48988336152449 -4.5434254523838895
lfingers nan
lthumb -0.5847112217472239 26.023051845903773
rclavicle -4.051618939249484e-15 -8.11069730745085e-15
rhumerus -40.453763441453425 16.33296039636389 -98.13433393912078
rradius 119.06023530099304
rwrist -12.436125570121416
rhand -17.62985769386077 1.0
rfingers nan
rthumb 8.59729072204905 11.951655020026942
